P1
36 7
0 0 1 0 0 0 1 0 0 0 1 0 1 1 1 1 0 0 1 1 1 1 0 0 1 1 1 1 1 0 1 0 0 0 1 0 
0 1 0 1 0 0 1 0 0 0 1 0 1 0 0 0 1 0 1 0 0 0 1 0 1 0 0 0 0 0 1 0 0 0 1 0 
1 0 0 0 1 0 1 1 0 0 1 0 1 0 0 0 1 0 1 0 0 0 1 0 1 0 0 0 0 0 1 0 0 0 1 0 
1 1 1 1 1 0 1 0 1 0 1 0 1 0 0 0 1 0 1 1 1 1 0 0 1 1 1 1 0 0 1 0 1 0 1 0 
1 0 0 0 1 0 1 0 0 1 1 0 1 0 0 0 1 0 1 0 1 0 0 0 1 0 0 0 0 0 1 1 0 1 1 0 
1 0 0 0 1 0 1 0 0 0 1 0 1 0 0 0 1 0 1 0 0 1 0 0 1 0 0 0 0 0 1 0 0 0 1 0 
1 0 0 0 1 0 1 0 0 0 1 0 1 1 1 1 0 0 1 0 0 0 1 0 1 1 1 1 1 0 1 0 0 0 1 0 
